<svg xmlns="http://www.w3.org/2000/svg" version="1.1" xmlns:xlink="http://www.w3.org/1999/xlink" xmlns:svgjs="http://svgjs.dev/svgjs" style="overflow: hidden; height: 85vh;" viewBox="0 0 1920 1080" class="overflow-hidden rounded-md drop-shadow-lg transition duration-300"><rect width="1920" height="1080" fill="#0f377d"/><g clip-path="url(&quot;#SvgjsClipPath1242&quot;)"><g transform="matrix(0.6263348902672812,0.9644711531372374,-0.9644711531372374,0.6263348902672812,874.4369401053007,-710.9598368652801)"><path d="M0,-1080C5.558455737120009,-967.6545596088765,18.150928523316573,-632.6353615487376,33.35073442272005,-405.9273576532588C48.55054032212353,-179.21935375778,80.91289605968822,60.6870059596184,91.19883539642086,280.24802337287304C101.4847747331535,499.80904078612764,114.13257425348758,698.6770172857433,95.06637044311589,911.438746826269C76.0001666327442,1124.2004763667946,-7.353992391956586,1348.7248584204053,-23.198387465809233,1556.8184006160272C-39.04278253966188,1764.9119428116492,-3.8663979109682054,2059.4697334360044,0,2160L 1920 2160 L 1920 -1080 Z" fill="url(&quot;#SvgjsLinearGradient1240&quot;)"/><path d="M960,-1080C970.7836205469031,-978.2735270697102,1009.6867692595855,-684.6474524036576,1024.7017232814185,-469.64116241826144C1039.7166773032513,-254.6348724328654,1061.3519653307176,-9.080024292332297,1050.0897241309976,210.0377399123763C1038.8274829312777,429.1555041170849,956.5495281235617,631.4276139502252,957.1282760830993,845.0654228099903C957.7070240426369,1058.7032316697555,1053.0835912354066,1272.7088302059651,1053.5622118882234,1491.8645930709667C1054.0408325410401,1711.0203559359684,975.5937019813706,2048.6440988451614,960,2160L 1920 2160 L 1920 -1080 Z" fill="url(&quot;#SvgjsLinearGradient1241&quot;)"/></g></g><defs><linearGradient x1="0.1" y1="0" x2="0" y2="1" id="SvgjsLinearGradient1240"><stop stop-color="#0f377d" offset="0"/><stop stop-color="#0f497d" offset="0"/></linearGradient><linearGradient x1="0.1" y1="0" x2="0" y2="1" id="SvgjsLinearGradient1241"><stop stop-color="#0a234f" offset="0"/><stop stop-color="#0a2e4f" offset="0.5"/></linearGradient><clipPath id="SvgjsClipPath1242"><rect width="1920" height="1080"/></clipPath></defs></svg>