<svg xmlns="http://www.w3.org/2000/svg" version="1.1" xmlns:xlink="http://www.w3.org/1999/xlink" xmlns:svgjs="http://svgjs.dev/svgjs" style="overflow: hidden; height: 85vh;" viewBox="0 0 1920 1080" class="overflow-hidden rounded-md drop-shadow-lg transition duration-300"><rect width="1920" height="1080" fill="#284f72"/><g clip-path="url(&quot;#SvgjsClipPath1220&quot;)"><g transform="matrix(0.8131727983645296,0.8131727983645295,-0.8131727983645295,0.8131727983645296,612.6370524788642,-654.382271476019)"><path d="M0,-1080C-9.86283827566584,-961.7576598920923,-50.905734030837216,-580.0434332841738,-59.17702965399504,-370.5459593525536C-67.44832527715288,-161.04848542093342,-58.261264524347425,-39.5524346857938,-49.62777373894696,176.98484358972104C-40.9942829535465,393.5221218652359,-6.3020564433316935,688.1894216038493,-7.376084941592296,928.6777103005355C-8.450113439852899,1169.1659989972218,-57.30129221877596,1414.6941941532612,-56.07194472851058,1619.9145757698386C-54.8425972382452,1825.134957386416,-9.34532412141843,2069.9857626283065,0,2160L 1920 2160 L 1920 -1080 Z" fill="url(&quot;#SvgjsLinearGradient1217&quot;)"/><path d="M640,-1080C631.3873336993911,-957.1275979622881,593.6632092033548,-618.6286170961762,588.3240021963463,-342.7655877737284C582.9847951893379,-66.90255845128064,604.6422741609099,281.35979884573425,607.9647579579494,575.1781759346866C611.2872417549888,868.9965530236389,602.9196979715745,1156.0077040824335,608.2589049785829,1420.1446747599857C613.5981119855913,1684.281645437538,634.7098174964304,2036.6907791266642,640,2160L 1920 2160 L 1920 -1080 Z" fill="url(&quot;#SvgjsLinearGradient1218&quot;)"/><path d="M1280,-1080C1284.5733075437367,-978.1589305795048,1316.1158315360806,-630.9977009928048,1307.4398452624205,-468.953583477029C1298.7638589887604,-306.90946596125315,1220.5813368894799,-258.6637554564523,1227.9440823580392,-107.73529490534501C1235.3068278265985,43.19316564576225,1342.345862052621,245.97410902219812,1351.616318073776,436.61717982961466C1360.886774094931,627.2602506370312,1278.7921425364202,857.1106178879692,1283.566818484969,1036.1231299391543C1288.3414944335177,1215.1356419903395,1380.8588435125625,1323.379440459918,1380.2643737650678,1510.6922521367255C1379.6699040175731,1698.005063813533,1296.7107289608446,2051.7820420227877,1280,2160L 1920 2160 L 1920 -1080 Z" fill="url(&quot;#SvgjsLinearGradient1219&quot;)"/></g></g><defs><linearGradient x1="0.1" y1="0" x2="0" y2="1" id="SvgjsLinearGradient1217"><stop stop-color="#284f72" offset="0"/><stop stop-color="#285b72" offset="0"/></linearGradient><linearGradient x1="0.1" y1="0" x2="0" y2="1" id="SvgjsLinearGradient1218"><stop stop-color="#1c374f" offset="0"/><stop stop-color="#1c3f4f" offset="0.3333333333333333"/></linearGradient><linearGradient x1="0.1" y1="0" x2="0" y2="1" id="SvgjsLinearGradient1219"><stop stop-color="#0f1e2c" offset="0"/><stop stop-color="#0f232c" offset="0.6666666666666666"/></linearGradient><clipPath id="SvgjsClipPath1220"><rect width="1920" height="1080"/></clipPath></defs></svg>